<svg data-name="Layer 2" xmlns="http://www.w3.org/2000/svg" viewBox="0 0 3461.65 661.1">
    <path d="M447.53 327.1h154.35v-33.29H483.35V183.5h115.1v-33.29h-115.1V68.55h118.53V35.26H447.53v291.83Zm483.28-172.62-20.58-8.13c-17.91-6.96-40.02-18.97-40.02-41.8 0-25.54 25.15-41.41 48.02-41.41s35.45 9.29 46.12 27.48l28.59-17.42C977.31 44.95 951.02 29.08 919 29.08c-43.45 0-84.61 28.26-84.61 75.48 0 40.64 29.72 59.61 62.5 73.93l19.82 8.51c24.77 10.45 49.54 24 49.54 55.35s-22.1 56.9-52.97 56.9-56.03-23.22-55.65-55.35l-36.21 7.74c6.1 46.83 42.3 81.67 88.8 81.67 51.45 0 91.85-37.93 91.85-90.95 0-48.77-30.49-71.6-71.27-87.86Zm1156.75 96.37L1871.85 21.34V327.1h35.82V109.58l215.72 229.51V35.27h-35.83v215.58Zm359.42-90.95-70.51-124.63h-41.16l93.76 164.88V327.1h35.82V200.15l93.76-164.88h-41.16l-70.51 124.63ZM1630.96 35.27h-35.82V327.1h35.82V35.27Zm-425.73 33.29h68.22V327.1h35.82V68.56h68.22V35.27h-172.26v33.29Zm1842.71-54.41c-23.01 0-38.81 16.15-58.45 25.88-1.34.69-2.79 1.33-4.28 1.98v103.56c-.54 30.82-25.32 55.67-55.77 55.67s-55.82-25.39-55.82-56.66V42.01c-1.45-.65-2.89-1.31-4.26-1.98-19.64-9.73-35.42-25.88-58.48-25.88-39.11 0-67.41 40.7-54.07 78.14 5.83 16.54 17.66 25.55 31.46 34.57 16.63 10.84 31.66 24.26 44.05 39.93 18.36 23.26 30.6 51.05 36.4 80.18 2.78 13.85 4.52 32.23 5.66 45.08 2.64 29.61 22.82 53.88 55.06 53.88s52.37-24.28 55.02-53.88c1.17-12.86 2.88-31.24 5.66-45.08 5.85-29.13 18.07-56.92 36.41-80.18 12.41-15.67 27.43-29.08 44.06-39.93 13.81-9.02 25.61-18.03 31.47-34.57 13.3-37.44-14.96-78.14-54.12-78.14Zm258.32 278.96c11.31-21.97 41.8-43.95 67.86-60.93 41.29-27.96 84.58-58.41 84.58-122.83C3458.7 50.42 3417.4 0 3344.12 0c-80.12 0-119.47 49.43-119.47 127.32h62.93c.97-44.43 21.14-69.41 55.06-69.41 29.99 0 46.71 21.47 46.71 53.42 0 43.97-46.21 67.93-88.5 101.88-38.35 30.46-78.68 70.41-81.12 135.83h241.92v-55.93h-155.39Zm-376.82-110.74c20.16 0 36.59-16.36 37.11-36.7V80.82c-.04-20.74-16.63-37.57-37.11-37.57s-37.07 16.83-37.12 37.57v64.85c.56 20.34 16.92 36.7 37.12 36.7Zm87.2 124.57c-8.22 0-14.74 6.98-14.74 15.69s6.52 15.69 14.74 15.69 14.75-6.97 14.75-15.69-6.48-15.69-14.75-15.69Zm0 28.97c-6.72 0-12.47-5.88-12.47-13.28s5.75-13.26 12.47-13.26 12.5 5.85 12.5 13.26-5.76 13.28-12.5 13.28ZM59.91 35.27H.46V327.1h58.31c90.71 0 162.36-48 162.36-147.46S147.95 35.27 59.91 35.27ZM48.86 293.81H36.28V68.56h12.58c73.17 0 136.44 27.48 136.44 112.63S122.04 293.82 48.86 293.82Zm2975.02 24.67c0-3.7-2.82-4.54-5.7-4.54h-7.02v17.17h2.24v-7.93h2.71l4.83 7.93h2.71l-4.86-7.93c2.86-.07 5.09-1.32 5.09-4.69Zm-7.76 2.28h-2.71v-4.42h4.31c1.73 0 3.89.32 3.89 2.1 0 2.72-3.5 2.32-5.49 2.32Zm-1942.1 264.57h-42.11v-43.6h-27.35v116.04h27.35v-49.9h42.11v49.9h27.35V541.73h-27.35v43.6ZM282.81 609.2h56.69v-21.38h-56.69v-23.54h64.32v-22.54h-91.67v116.04h93.33v-22.54h-65.98v-26.03Zm285.78-12.27v-.33c8.29-1.33 22.05-7.13 22.05-25.53 0-24.53-23.04-32.66-49.07-32.66-29.67 0-49.07 9.62-50.89 40.95h26.69c.83-18.07 15.25-18.4 21.22-18.4 3.81 0 22.54-.17 22.54 13.92 0 11.44-11.27 12.93-19.06 12.93h-13.59v21.38h16.41c6.63 0 19.89.83 19.89 14.09 0 6.46-4.14 15.25-23.54 15.25s-26.86-8.79-27.35-20.72h-26.52c1.82 37.96 29.34 43.27 53.05 43.27 25.2 0 53.88-5.3 53.88-34.81 0-17.9-9.12-26.03-25.69-29.34Zm228.59-58.52c-45.75 0-58.68 34.31-58.68 61.34s12.93 61.33 58.68 61.33c39.95 0 58.68-26.19 58.68-61.33s-18.73-61.34-58.68-61.34Zm0 100.13c-15.09 0-29.01-8.45-29.01-38.79s13.92-38.79 29.01-38.79c27.85 0 29.18 28.18 29.18 38.79 0 9.78-1.33 38.79-29.18 38.79Zm-739.16 0c-18.57 0-28.51-15.75-28.51-37.63 0-38.79 21.55-39.95 27.68-39.95s21.55.83 24.2 20.22h26.85c-.83-17.08-11.11-42.77-52.38-42.77C44.59 538.41 0 540.73 0 601.9c0 45.59 27.19 59.18 56.86 59.18 41.11 0 50.89-26.85 52.71-44.26H82.38c-1.33 8.62-6.3 21.72-24.37 21.72Zm3136.16-29.34h56.69v-21.38h-56.69v-23.54h64.32v-22.54h-91.67v116.04h93.33v-22.54h-65.98v-26.03Zm-464.31-23.87h-42.11v-43.6h-27.35v116.04h27.35v-49.9h42.11v49.9h27.35V541.73h-27.35v43.6Zm209.03 31.33v-74.93h-27.35v116.04h27.35l46.25-75.76v75.76h27.35V541.73h-27.35l-46.25 74.93Zm466.3-14.92 13.59 11.6-13.59 11.6v22.88l24.87-22.88v-23.21l-24.87-22.88v22.88Zm-1983.41 23.21 24.87 22.88v-22.88l-13.59-11.6 13.59-11.6v-22.88l-24.87 22.88v23.21Zm2014.74-23.21 13.59 11.6-13.59 11.6v22.88l24.87-22.88v-23.21l-24.87-22.88v22.88Zm-1983.41 23.21 24.87 22.88v-22.88l-13.59-11.6 13.59-11.6v-22.88l-24.87 22.88v23.21Zm329.71-83.22h-32.33l-35.47 47.25h-.5v-47.25h-27.35v47.25h-.5l-35.48-47.25h-32.33l45.42 53.88-46.75 62.16h33.15l35.97-52.55h.5v52.55h27.35v-52.55h.5l35.97 52.55h33.15l-46.75-62.16 45.42-53.88Zm396.18 55.37c-.5 19.39-1.16 41.61-27.02 38.13v22.54c48.9 6.63 52.22-30.5 52.88-53.05l.83-40.45h32.66v93.5h27.35V541.73h-85.87l-.83 55.37Zm-227.93 12.1h56.69v-21.38h-56.69v-23.54h64.32v-22.54h-91.67v116.04h93.33v-22.54h-65.98v-26.03Zm498.46-67.47-43.43 116.04h28.84l7.29-21.72h42.11l7.46 21.72h29.01l-43.6-116.04h-27.68Zm-1.33 74.6 15.25-44.26 14.92 44.26h-30.17Z" style="fill:#fff;stroke-width:0"/>
</svg>